<svg width="38.033" height="31.656" xmlns="http://www.w3.org/2000/svg">

 <g>
  <title>Layer 1</title>
  <g id="svg_2">
   <path id="svg_3" fill="#e44e41" d="m10.917,15.539a33.245,33.245 0 0 1 5.491,-1.254l0.035,0l0.474,-0.047s-1.834,8.5 -6.964,12.618s-10.517,-0.23 -8.3,-4.957c1.494,-3.18 5.328,-5.152 9.261,-6.356" class="a"/>
   <path id="svg_4" fill="#e37d34" d="m16.41601,13.22599l-0.035,0a33.009,33.009 0 0 1 -5.6,-0.576c-4.05,-0.715 -8.1,-2.205 -9.967,-5.18c-2.779,-4.42 2.037,-9.391 7.632,-5.93s8.45,11.675 8.45,11.675l-0.451,0.012l-0.029,-0.001z" class="b"/>
   <path id="svg_5" fill="#52b449" d="m24.279,12.574a33.137,33.137 0 0 1 -5.565,0.869l-0.036,0l-0.476,0.014s2.422,-8.353 7.828,-12.1s10.475,0.964 7.93,5.523c-1.712,3.068 -5.674,4.768 -9.682,5.7" class="c"/>
   <path id="svg_6" fill="#185ba5" d="m22.33399,18.01399l0.035,0a33.157,33.157 0 0 1 5.549,0.966c3.99,1 7.923,2.766 9.581,5.862c2.465,4.6 -2.687,9.226 -8.026,5.383s-7.615,-12.235 -7.615,-12.235l0.451,0.019l0.025,0.005z" class="d"/>
  </g>
 </g>
</svg>